# xmcd
#
# Track frame offsets: 
#        150
#        11405
#        30132
#        50307
#        61292
#        79392
#        89722
#        103977
#        113202
#        141167
#        158762
#        177700
#        196262
#        217532
#
# Disc length: 3231 seconds
#
# Revision: 0
# Processed by: cddbd v1.5.2PL0 Copyright (c) Steve Scherf et al.
# Submitted via: ExactAudioCopyFreeDBPlugin 1.0
#
DISCID=b70c9d0e
DTITLE=Johnny Moonshine and The Troubled Water Band - Johnny Moonshine &
DTITLE=The Troubled Water Band
DYEAR=1996
DGENRE=Country
TTITLE0=Boom, That's A Second
TTITLE1=I Believe
TTITLE2=Life In Luxury
TTITLE3=Until Daddy's Coming Home
TTITLE4=Johnny
TTITLE5=Blue Town
TTITLE6=If I Could
TTITLE7=Muddfaced Molly
TTITLE8=Flashback
TTITLE9=Picture Of A Memory
TTITLE10=I'm Going Up
TTITLE11=Morning Groove
TTITLE12=Nasty Neighbourhood
TTITLE13=Mother
EXTD=
EXTT0=
EXTT1=
EXTT2=
EXTT3=
EXTT4=
EXTT5=
EXTT6=
EXTT7=
EXTT8=
EXTT9=
EXTT10=
EXTT11=
EXTT12=
EXTT13=
PLAYORDER=
